HIERARCHY
ROOT Hips
{
	OFFSET 0.00000 0.00000 0.00000
	CHANNELS 6 Xposition Yposition Zposition Yrotation Zrotation Xrotation 
	JOINT Lumbar
	{
		OFFSET 0 0 0
		CHANNELS 3 Zrotation Xrotation Yrotation
		JOINT Neck
		{
			OFFSET 0.00 0.2701 0.00
			CHANNELS 3 Zrotation Xrotation Yrotation
			End Site
			{
				OFFSET 0.00 0.1379 0.00
			}
		}
		JOINT RightShoulder
		{
			OFFSET 0.0119 0.2289 0.1181
			CHANNELS 3 Zrotation Xrotation Yrotation
			JOINT RightElbow
			{
				OFFSET 0.00 -0.1475 0.00
				CHANNELS 2 Zrotation Yrotation
				JOINT RightWrist
				{
					OFFSET 0.00 -0.1605 0.00
					CHANNELS 2 Zrotation Xrotation
					End Site
					{
						OFFSET 0.0040 -0.1068 0.0006
					}
				}
			}
		}
		JOINT LeftShoulder
		{
			OFFSET 0.0119 0.2289 -0.1181
			CHANNELS 3 Zrotation Xrotation Yrotation
			JOINT LeftElbow
			{
				OFFSET 0.00 -0.1475 0.00
				CHANNELS 2 Zrotation Yrotation
				JOINT LeftWrist
				{
					OFFSET 0.00 -0.1605 0.00
					CHANNELS 2 Zrotation Xrotation
					End Site
					{
						OFFSET 0.0040 -0.1068 -0.0006
					}
				}
			}
		}
	}
	JOINT RightHip
	{
		OFFSET 0.0316 -0.0424 0.0458
		CHANNELS 3 Zrotation Xrotation Yrotation
		JOINT RightKnee
		{
			OFFSET 0.00 -0.2438 0.00
			CHANNELS 1 Zrotation
			JOINT RightAnkle
			{
				OFFSET 0.00 -0.2449 0.00
				CHANNELS 3 Zrotation Xrotation Yrotation
				End Site
				{
					OFFSET 0.1237 -0.0542 0.0051
				}
			}
		}
	}
	JOINT LeftHip
	{
		OFFSET 0.0316 -0.0424 -0.0458
		CHANNELS 3 Zrotation Xrotation Yrotation
		JOINT LeftKnee
		{
			OFFSET 0.00 -0.2438 0.00
			CHANNELS 1 Zrotation
			JOINT LeftAnkle
			{
				OFFSET 0.00 -0.2449 0.00
				CHANNELS 3 Zrotation Xrotation Yrotation
				End Site
				{
					OFFSET 0.1237 -0.0542 -0.0051
				}
			}
		}
	}
}
MOTION
Frames: 11
Frame Time: 0.02
0 0.57926 -0 166.22998 0 -6.19663 7.41603 5.81624 -0.93764 -43.31751 -4.69725 -5.24833 35.34601 -6.06587 2.85773 9.78137 84.67302 -1.47197 -4.02448 29.32091 22.33711 -3.78285 10.23482 -82.79348 -3.67725 1.00867 -6.10375 8.80954 9.41497 -7.10656 -11.06426 0.17045 -14.74233 -10.62244 7.28832 19.10864 -2.36468 -3.44799 2.62596 7.2615
-9e-05 0.57928 0.0004 166.48632 0 -6.15889 7.48014 5.81027 -1.00983 -42.96584 -4.652 -5.06959 35.06352 -6.14871 3.34447 9.72175 84.65666 -1.40404 -3.93897 29.56124 22.13834 -4.87472 10.4327 -82.61311 -3.75994 1.15022 -6.12169 8.76901 9.26397 -7.12675 -11.10943 -0.09929 -14.81882 -10.59403 7.25306 18.90434 -2.32517 -3.47853 2.63379 7.2349
-0.00018 0.5793 0.00081 166.74274 0 -6.12109 7.54387 5.80412 -1.08193 -42.61508 -4.60681 -4.89201 34.78177 -6.23139 3.8301 9.66269 84.63923 -1.33652 -3.85423 29.8019 21.94038 -5.96274 10.63134 -82.43401 -3.84308 1.29263 -6.13968 8.72793 9.10494 -7.14666 -11.1536 -0.36742 -14.88756 -10.56552 7.21777 18.69998 -2.28569 -3.50906 2.6415 7.20823
-0.00027 0.57932 0.00122 167.00177 0 -6.08272 7.6068 5.7971 -1.15435 -42.2654 -4.56137 -4.71779 34.50063 -6.3136 4.3159 9.6051 84.61676 -1.26992 -3.77167 30.04576 21.74407 -7.04446 10.83294 -82.25718 -3.92755 1.43835 -6.15841 8.68408 8.90719 -7.16507 -11.19385 -0.63167 -14.92101 -10.53641 7.18219 18.49259 -2.24605 -3.53982 2.64885 7.1821
-0.00037 0.57934 0.00161 167.24672 0 -6.0474 7.67409 5.79459 -1.22509 -41.91106 -4.51717 -4.52631 34.21674 -6.39758 4.80062 9.53948 84.62026 -1.19838 -3.67749 30.27211 21.53945 -8.15769 11.01644 -82.06709 -4.00345 1.56472 -6.17366 8.65468 8.90842 -7.19075 -11.25442 -0.91639 -15.13538 -10.5106 7.14836 18.3003 -2.20737 -3.56931 2.65818 7.15437
-0.00045 0.57936 0.00204 167.52137 0 -6.00567 7.73198 5.78262 -1.2993 -41.56621 -4.47044 -4.37116 33.93861 -6.47822 5.28726 9.49107 84.56934 -1.13742 -3.60804 30.53562 21.35232 -9.20445 11.23969 -81.90608 -4.09844 1.73308 -6.19595 8.59489 8.49294 -7.20147 -11.27224 -1.15758 -14.97095 -10.47775 7.11072 18.07693 -2.16662 -3.6015 2.66325 7.12923
-0.00045 0.57937 0.00255 167.88743 0 -5.94444 7.76552 5.74246 -1.38557 -41.24476 -4.41476 -4.31887 33.67211 -6.54739 5.79196 9.48931 84.35668 -1.10433 -3.60694 30.90963 21.21238 -10.07918 11.56884 -81.8169 -4.24168 2.01621 -6.2416 8.44529 6.83687 -7.1658 -11.16579 -1.28052 -13.68201 -10.42449 7.0622 17.75245 -2.11972 -3.64201 2.65686 7.11812
-0.00043 0.57938 0.00308 168.28206 0 -5.877 7.78931 5.69307 -1.47495 -40.93304 -4.35677 -4.3027 33.41191 -6.61375 6.29661 9.50508 84.09083 -1.08213 -3.63077 31.31988 21.09012 -10.88548 11.93895 -81.75859 -4.40501 2.34213 -6.29371 8.26592 4.7745 -7.11582 -11.01719 -1.35927 -12.0233 -10.36423 7.00985 17.39892 -2.0708 -3.68511 2.64615 7.10859
-0.00041 0.57939 0.00361 168.65811 0 -5.81348 7.81652 5.64921 -1.56144 -40.61826 -4.30112 -4.26837 33.15126 -6.68284 6.79384 9.51342 83.85667 -1.05578 -3.64314 31.7092 20.96037 -11.71696 12.29358 -81.69153 -4.56238 2.64978 -6.34031 8.10385 2.95465 -7.07578 -10.89177 -1.45717 -10.58353 -10.3077 6.95944 17.06837 -2.02295 -3.72655 2.63721 7.09358
-0.00042 0.5794 0.00413 169.05815 0 -5.74535 7.8479 5.59979 -1.65426 -40.29773 -4.24027 -4.24159 32.88045 -6.74546 7.32318 9.51955 83.59136 -1.02606 -3.65609 32.11828 20.8285 -12.57407 12.63594 -81.60204 -4.70692 2.95298 -6.39759 7.92597 0.89186 -7.02162 -10.74941 -1.55915 -8.93046 -10.24882 6.9082 16.69714 -1.97426 -3.77014 2.62898 7.09777
-0.00038 0.57941 0.00467 169.4145 0 -5.68536 7.86839 5.55967 -1.73449 -39.99154 -4.1894 -4.20746 32.6323 -6.8213 7.78466 9.53437 83.37763 -1.00595 -3.67371 32.49354 20.70505 -13.36054 13.01231 -81.56684 -4.88223 3.27491 -6.4344 7.77384 -0.76286 -6.99297 -10.63229 -1.64195 -7.63212 -10.19322 6.85775 16.40307 -1.9271 -3.80972 2.61835 7.06347
